
<!-- Generator: Adobe Illustrator 23.0.2, SVG Export Plug-In . SVG Version: 6.00 Build 0)  -->
<svg version="1.1" id="Layer_1" xmlns="http://www.w3.org/2000/svg" xmlns:xlink="http://www.w3.org/1999/xlink" x="0px" y="0px"
	 viewBox="0 0 201.38 142.52" style="enable-background:new 0 0 201.38 142.52;" xml:space="preserve">
<style type="text/css">
	.st0{fill:#FFFFFF;}
</style>
<g id="rEn7Wg_1_">
	<g>
		<path class="st0" d="M84.88,120.03c0-21.81,0-43.27,0-65.17c7.14,0,14.18,0,21.58,0c0,2.34,0,4.77,0,6.4
			c5.07-2.63,9.88-6.5,15.27-7.67c16.04-3.48,29.07,6.69,29.74,23.1c0.59,14.3,0.12,28.64,0.12,43.35c-7.07,0-14.12,0-21.77,0
			c0-6.87,0.02-13.64-0.01-20.42c-0.03-6.16,0.1-12.34-0.24-18.49c-0.35-6.39-3.89-10.3-9.06-10.76c-6.56-0.58-11.42,2.62-13.1,8.87
			c-0.51,1.89-0.67,3.93-0.68,5.9c-0.06,11.49-0.03,22.98-0.03,34.88C99.47,120.03,92.42,120.03,84.88,120.03z"/>
		<path class="st0" d="M72.44,54.71c0,21.84,0,43.41,0,65.36c-7.09,0-14.13,0-21.47,0c0-21.71,0-43.39,0-65.36
			C58.02,54.71,64.94,54.71,72.44,54.71z"/>
		<path class="st0" d="M61.82,22.45c7.03-0.03,12.39,4.95,12.36,11.49c-0.03,6.54-5.35,11.45-12.41,11.46
			c-7.19,0-12.14-4.67-12.16-11.49C49.58,27.12,54.52,22.49,61.82,22.45z"/>
	</g>
</g>
</svg>
