<?xml version="1.0" encoding="utf-8"?>
<!-- Generator: Adobe Illustrator 23.0.2, SVG Export Plug-In . SVG Version: 6.00 Build 0)  -->
<svg version="1.1" id="Layer_1" xmlns="http://www.w3.org/2000/svg" xmlns:xlink="http://www.w3.org/1999/xlink" x="0px" y="0px"
	 viewBox="0 0 492.28 164.09" style="enable-background:new 0 0 492.28 164.09;" xml:space="preserve" id="">
<style type="text/css">
	.edura0{fill:none;stroke:#000000;stroke-width:17;stroke-linecap:round;stroke-miterlimit:10;}
	.edura1{fill:none;stroke:#000000;stroke-width:10;stroke-linecap:round;stroke-miterlimit:10;}
</style>
<g>
	<path d="M260.46,104.04l-1.76,27.19h-76.63v-4.62c1.3-0.09,3.03-0.27,5.2-0.55c2.17-0.28,3.58-0.57,4.23-0.88
		c1.39-0.65,2.35-1.5,2.89-2.54c0.54-1.04,0.81-2.36,0.81-3.97V52.33c0-1.43-0.24-2.7-0.72-3.81c-0.48-1.11-1.47-2.01-2.99-2.7
		c-1.17-0.56-2.74-1.06-4.72-1.5c-1.97-0.43-3.54-0.69-4.72-0.78v-4.62h71.42v22.25h-4.88c-0.87-3.29-2.74-6.8-5.63-10.51
		c-2.88-3.71-5.63-5.73-8.23-6.08c-1.34-0.17-2.95-0.3-4.81-0.39c-1.87-0.09-3.99-0.13-6.37-0.13h-14.51v36.69h10.41
		c3.34,0,5.78-0.31,7.32-0.94c1.54-0.63,2.89-1.68,4.07-3.15c0.95-1.26,1.77-2.94,2.44-5.04c0.67-2.1,1.12-4.09,1.33-5.95h4.88
		v36.17h-4.88c-0.17-2.08-0.64-4.28-1.4-6.6c-0.76-2.32-1.55-4-2.37-5.04c-1.34-1.69-2.87-2.8-4.59-3.32
		c-1.71-0.52-3.98-0.78-6.8-0.78h-10.41v27.67c0,2.77,0.2,4.96,0.59,6.56c0.39,1.6,1.15,2.81,2.28,3.64
		c1.13,0.82,2.67,1.35,4.62,1.59c1.95,0.24,4.73,0.36,8.33,0.36c1.43,0,3.32,0,5.66,0s4.31-0.09,5.92-0.26
		c1.65-0.17,3.35-0.49,5.11-0.94c1.76-0.46,3-1.07,3.74-1.85c1.99-2.08,4.09-5.24,6.28-9.46c2.19-4.23,3.59-7.34,4.2-9.33H260.46z"
		/>
	<path d="M327.99,130.2l-30.98,1.29l-0.98-0.91v-5.98l-0.52-0.13c-2.25,2.52-5.04,4.58-8.35,6.18c-3.31,1.6-6.72,2.41-10.23,2.41
		c-3.64,0-7.16-0.81-10.56-2.44c-3.4-1.63-6.35-3.91-8.87-6.86c-2.56-2.99-4.58-6.59-6.07-10.8c-1.49-4.21-2.24-8.85-2.24-13.92
		c0-4.64,0.8-9.04,2.4-13.2c1.6-4.16,3.81-7.81,6.63-10.93c2.64-2.9,5.88-5.23,9.71-6.96c3.83-1.73,7.74-2.6,11.73-2.6
		c2.99,0,5.92,0.38,8.8,1.14c2.88,0.76,5.36,1.72,7.44,2.89V47.02c0-1.82-0.3-3.49-0.91-4.98c-0.61-1.5-1.45-2.64-2.54-3.42
		c-1.21-0.83-2.85-1.42-4.91-1.79c-2.06-0.37-4.28-0.64-6.67-0.82v-4.03l26.28-1.43l0.98,0.97v86.45c0,1.52,0.29,2.81,0.88,3.87
		c0.59,1.06,1.44,1.96,2.57,2.7c0.82,0.52,2.02,0.84,3.58,0.97s7.28,0.22,8.58,0.26L327.99,130.2z M295.9,118.81V81.28
		c-0.35-1.13-0.91-2.34-1.69-3.64c-0.78-1.3-1.75-2.49-2.92-3.58c-1.25-1.08-2.73-1.98-4.42-2.7c-1.69-0.72-3.66-1.07-5.91-1.07
		c-2.6,0-4.99,0.67-7.17,2.02c-2.19,1.34-4.12,3.27-5.81,5.79c-1.6,2.43-2.87,5.52-3.8,9.27c-0.93,3.75-1.4,7.9-1.4,12.46
		c0,3.64,0.35,6.95,1.04,9.92c0.69,2.97,1.86,5.74,3.51,8.29c1.51,2.43,3.45,4.38,5.81,5.85c2.36,1.47,5.16,2.21,8.41,2.21
		c3.46,0,6.33-0.76,8.6-2.28C292.43,122.3,294.35,120.63,295.9,118.81z"/>
	<path d="M381.45,130.06l-20.94,1.43l-0.98-0.91v-8.13h-0.39c-1.04,1.08-2.21,2.24-3.51,3.48s-2.79,2.35-4.48,3.35
		c-1.95,1.17-3.83,2.06-5.65,2.67c-1.82,0.61-4.39,0.91-7.73,0.91c-5.67,0-9.99-1.85-12.96-5.56s-4.45-9.09-4.45-16.15V80.49
		c0-1.56-0.29-2.87-0.88-3.93s-1.45-1.98-2.59-2.76c-0.79-0.52-1.77-0.9-2.95-1.14c-1.18-0.24-2.42-0.4-3.73-0.49v-4.29l21.4-1.56
		l0.98,0.91v44.56c0,4.64,1.04,8.13,3.12,10.47s4.57,3.51,7.48,3.51c2.38,0,4.51-0.37,6.37-1.1c1.86-0.74,3.43-1.6,4.68-2.6
		c1.17-0.91,2.2-1.87,3.09-2.89c0.89-1.02,1.57-1.96,2.05-2.83V80.03c0-1.43-0.3-2.7-0.91-3.8c-0.61-1.1-1.45-2.05-2.54-2.83
		c-0.78-0.52-1.94-0.83-3.48-0.94c-1.54-0.11-3.26-0.21-5.17-0.29v-4.29l23.35-1.56l0.98,0.91v50.88c0,1.47,0.3,2.73,0.91,3.77
		c0.61,1.04,1.45,1.93,2.54,2.66c0.78,0.48,1.71,0.79,2.8,0.94c1.08,0.15,2.28,0.25,3.58,0.29V130.06z"/>
	<path d="M424.43,74.36c0,2.21-0.54,4.17-1.63,5.89c-1.08,1.71-2.75,2.57-5.01,2.57c-2.43,0-4.28-0.63-5.56-1.89
		c-1.28-1.26-1.92-2.64-1.92-4.16c0-0.95,0.08-1.82,0.23-2.6c0.15-0.78,0.29-1.56,0.42-2.34c-2.04,0-4.42,0.82-7.16,2.47
		c-2.73,1.65-5.05,3.99-6.96,7.02v37.34c0,1.52,0.29,2.75,0.88,3.71c0.59,0.95,1.51,1.67,2.76,2.15c1.08,0.43,2.48,0.76,4.2,0.98
		c1.71,0.22,3.2,0.37,4.46,0.46v4.29h-33.82v-4.29c1-0.09,2.03-0.17,3.09-0.26c1.06-0.09,1.98-0.26,2.76-0.52
		c1.21-0.39,2.11-1.07,2.7-2.05c0.58-0.97,0.88-2.24,0.88-3.8V79.75c0-1.34-0.31-2.66-0.94-3.96c-0.63-1.3-1.51-2.34-2.63-3.12
		c-0.82-0.52-1.8-0.9-2.93-1.14c-1.13-0.24-2.34-0.4-3.64-0.49v-4.29l21.34-1.43l0.91,0.91v9.04h0.33c2.69-3.51,5.68-6.18,8.98-8
		c3.29-1.82,6.31-2.73,9.04-2.73s4.95,0.89,6.67,2.67C423.58,68.98,424.43,71.37,424.43,74.36z"/>
	<path d="M466.65,127.06c-2.04,0.74-3.83,1.33-5.37,1.79c-1.54,0.46-3.28,0.68-5.24,0.68c-3.38,0-6.08-0.79-8.1-2.37
		s-3.31-3.89-3.87-6.93h-0.39c-2.82,3.12-5.84,5.51-9.07,7.16c-3.23,1.65-7.12,2.47-11.68,2.47c-4.81,0-8.77-1.47-11.87-4.42
		c-3.1-2.95-4.65-6.81-4.65-11.58c0-2.47,0.35-4.68,1.04-6.63c0.69-1.95,1.73-3.71,3.12-5.27c1.08-1.3,2.51-2.46,4.29-3.48
		c1.78-1.02,3.45-1.83,5.01-2.44c1.95-0.74,5.91-2.1,11.87-4.1c5.96-1.99,9.98-3.56,12.07-4.68v-6.44c0-0.56-0.12-1.65-0.36-3.25
		c-0.24-1.6-0.75-3.12-1.53-4.55c-0.87-1.6-2.09-3-3.67-4.2c-1.58-1.19-3.83-1.79-6.73-1.79c-2,0-3.85,0.34-5.56,1.01
		c-1.71,0.67-2.92,1.38-3.61,2.11c0,0.87,0.21,2.15,0.62,3.84c0.41,1.69,0.62,3.25,0.62,4.68c0,1.52-0.68,2.91-2.05,4.16
		c-1.37,1.26-3.26,1.89-5.69,1.89c-2.17,0-3.76-0.77-4.78-2.31c-1.02-1.54-1.53-3.26-1.53-5.17c0-1.99,0.7-3.9,2.11-5.72
		c1.41-1.82,3.24-3.45,5.5-4.88c1.95-1.21,4.31-2.24,7.09-3.09c2.77-0.85,5.49-1.27,8.13-1.27c3.64,0,6.82,0.25,9.53,0.75
		c2.71,0.5,5.17,1.57,7.38,3.22c2.21,1.6,3.89,3.78,5.04,6.54c1.15,2.75,1.72,6.3,1.72,10.64c0,6.2-0.06,11.7-0.19,16.49
		c-0.13,4.79-0.2,10.03-0.2,15.71c0,1.69,0.29,3.04,0.88,4.03c0.59,1,1.48,1.84,2.7,2.54c0.65,0.39,1.68,0.61,3.09,0.65
		c1.41,0.04,2.85,0.06,4.33,0.06V127.06z M443.95,92.72c-3.69,1.09-6.92,2.15-9.69,3.19c-2.78,1.04-5.36,2.35-7.74,3.91
		c-2.17,1.48-3.88,3.23-5.14,5.25c-1.26,2.02-1.89,4.42-1.89,7.2c0,3.61,0.94,6.26,2.83,7.95c1.89,1.7,4.28,2.54,7.19,2.54
		c3.08,0,5.79-0.75,8.13-2.25c2.34-1.5,4.31-3.27,5.92-5.31L443.95,92.72z"/>
</g>
<g>
	<polyline className="edura0" points="24.24,66.72 94.4,116.98 160.27,68.77 	"/>
	<polyline className="edura1" points="57.17,53.58 93.36,79.5 127.34,54.64 	"/>
</g>
</svg>
