
<!-- Generator: Adobe Illustrator 23.0.2, SVG Export Plug-In . SVG Version: 6.00 Build 0)  -->
<svg version="1.1" id="Layer_1" xmlns="http://www.w3.org/2000/svg" xmlns:xlink="http://www.w3.org/1999/xlink" x="0px" y="0px"
	 viewBox="0 0 201.38 142.52" style="enable-background:new 0 0 201.38 142.52;" xml:space="preserve">
<style type="text/css">
	.st0{fill:#FFFFFF;}
</style>
<g id="_x39_SJjod_1_">
	<g>
		<path className="st0" d="M124.37,133.24c0.21,0.05,0.29,0.08,0.37,0.08c10.43,0,20.86,0.02,31.29-0.01c3.81-0.01,6.66-2.87,6.74-6.71
			c0.07-3.33,0.02-6.66,0.02-9.99c0-11.14,0-22.29,0-33.43c0-11.1,0-22.21,0-33.31c0-11.1,0.03-22.21-0.02-33.31
			c-0.02-4.78-2.75-7.39-7.52-7.39c-13.13,0-26.26,0-39.39,0c-23.36,0-46.72-0.01-70.09-0.01c-4.31,0-7.16,2.81-7.18,7.13
			c-0.03,8.05-0.01,16.1-0.01,24.15c0,17.45,0,34.9,0,52.35c0,11.1,0.08,22.21-0.04,33.31c-0.04,4.27,3.44,7.48,7.36,7.26
			c1.46-0.08,2.93-0.04,4.4-0.04c17.69,0.01,35.38,0.02,53.07,0.02c1.58,0,1.58,0,1.58-1.63c0-8.49,0-16.97,0-25.46
			c0-6.62-0.02-13.25,0.02-19.87c0.01-0.96-0.31-1.21-1.22-1.19c-2.3,0.06-4.6,0.04-6.9,0.04c-2.65,0-5.3,0-8.03,0
			c0-6.29,0-12.45,0-18.73c5.37,0,10.67,0,16.02,0c0.04-0.41,0.1-0.72,0.1-1.03c0-3.65,0.05-7.3-0.03-10.94
			c-0.1-5.05,0.38-9.99,2.66-14.58c3.92-7.9,10.71-11.49,19.19-11.88c5.25-0.24,10.53,0.29,15.8,0.44c0.86,0.02,0.92,0.48,0.92,1.15
			c-0.01,4.92,0.01,9.83,0.01,14.75c0,0.3-0.07,0.6-0.11,0.98c-3.64,0-7.21-0.06-10.78,0.01c-5.63,0.11-8.21,2.7-8.29,8.3
			c-0.05,3.45-0.01,6.9-0.02,10.35c0,0.78,0,1.56,0,2.48c6.22,0,12.31,0,18.4,0c0.01,0.25,0.04,0.37,0.02,0.48
			c-0.74,5.82-1.49,11.63-2.2,17.45c-0.09,0.75-0.52,0.76-1.06,0.75c-3.01-0.01-6.03,0-9.04,0c-2.01,0-4.02,0-6.07,0
			C124.37,101.32,124.37,117.25,124.37,133.24z"/>
		<path className="st0" d="M124.37,133.24c0-15.99,0-31.92,0-48.02c2.05,0,4.06,0,6.07,0c3.01,0,6.03,0,9.04,0c0.55,0,0.97,0,1.06-0.75
			c0.71-5.82,1.46-11.63,2.2-17.45c0.01-0.11-0.01-0.23-0.02-0.48c-6.09,0-12.18,0-18.4,0c0-0.92,0-1.7,0-2.48
			c0-3.45-0.04-6.9,0.02-10.35c0.09-5.6,2.66-8.19,8.29-8.3c3.57-0.07,7.13-0.01,10.78-0.01c0.04-0.38,0.11-0.68,0.11-0.98
			c0-4.92-0.02-9.83-0.01-14.75c0-0.67-0.06-1.13-0.92-1.15c-5.27-0.15-10.55-0.68-15.8-0.44c-8.47,0.39-15.26,3.98-19.19,11.88
			c-2.28,4.59-2.76,9.53-2.66,14.58c0.07,3.65,0.03,7.3,0.03,10.94c0,0.31-0.06,0.61-0.1,1.03c-5.36,0-10.65,0-16.02,0
			c0,6.28,0,12.44,0,18.73c2.73,0,5.38,0,8.03,0c2.3,0,4.6,0.02,6.9-0.04c0.92-0.03,1.23,0.22,1.22,1.19
			c-0.04,6.62-0.02,13.24-0.02,19.87c0,8.49,0,16.97,0,25.46c0,1.62,0,1.63-1.58,1.63c-17.69-0.01-35.38-0.02-53.07-0.02
			c-1.47,0-2.94-0.05-4.4,0.04c-3.92,0.22-7.41-2.99-7.36-7.26c0.11-11.1,0.04-22.21,0.04-33.31c0-17.45,0-34.9,0-52.35
			c0-8.05-0.02-16.1,0.01-24.15c0.02-4.32,2.87-7.13,7.18-7.13c23.36,0,46.72,0.01,70.09,0.01c13.13,0,26.26,0,39.39,0
			c4.77,0,7.5,2.61,7.52,7.39c0.05,11.1,0.02,22.21,0.02,33.31c0,11.1,0,22.21,0,33.31c0,11.14,0,22.29,0,33.43
			c0,3.33,0.05,6.66-0.02,9.99c-0.08,3.84-2.93,6.7-6.74,6.71c-10.43,0.04-20.86,0.01-31.29,0.01
			C124.66,133.32,124.59,133.29,124.37,133.24z"/>
	</g>
</g>
<g id="b6EN02_1_">
	<g>
		<path className="st0" d="M-364.77,146.63c-10.44,7.91-21.77,10.92-34.18,10.05c0.03,0.4,0.01,0.53,0.05,0.56
			c0.3,0.22,0.61,0.45,0.94,0.64c22.79,12.6,46.1,13.45,68.74,0.68c23.29-13.14,34.02-34.39,34.78-60.85
			c0.05-1.64,0.43-2.68,1.72-3.84c3.54-3.2,6.81-6.7,10.19-10.08c-0.15-0.14-0.3-0.28-0.46-0.42c-4,1.08-8,2.15-12,3.23
			c4.02-3.75,7.45-7.49,8.9-12.64c-4.22,1.53-8.21,2.94-12.17,4.45c-1.81,0.69-3.06,0.24-4.55-1.01
			c-7.45-6.23-15.92-7.89-24.92-4.17c-8.7,3.6-13.9,10.26-14.84,19.82c-0.25,2.57-0.04,5.19-0.04,8.08
			c-20.18-1.4-36.41-9.98-49.64-25.34c-5.78,12.81-3.33,23.35,6.62,32.62c-3.23-0.89-6.46-1.78-9.67-2.67
			c-0.84,9.89,6.03,18.78,18.17,23.93c-3.18,0.14-6.35,0.29-9.78,0.44C-383.08,140.1-375.71,145.35-364.77,146.63z"/>
		<path className="st0" d="M-364.77,146.63c-10.94-1.28-18.31-6.53-22.14-16.52c3.43-0.16,6.6-0.3,9.78-0.44
			c-12.14-5.15-19.01-14.04-18.17-23.93c3.22,0.89,6.44,1.78,9.67,2.67c-9.95-9.27-12.4-19.82-6.62-32.62
			c13.23,15.36,29.46,23.94,49.64,25.34c0-2.89-0.22-5.51,0.04-8.08c0.94-9.56,6.15-16.23,14.84-19.82c9-3.72,17.47-2.06,24.92,4.17
			c1.49,1.25,2.74,1.7,4.55,1.01c3.95-1.51,7.95-2.92,12.17-4.45c-1.45,5.15-4.88,8.89-8.9,12.64c4-1.08,8-2.15,12-3.23
			c0.15,0.14,0.3,0.28,0.46,0.42c-3.38,3.38-6.65,6.88-10.19,10.08c-1.29,1.16-1.67,2.2-1.72,3.84
			c-0.76,26.46-11.49,47.72-34.78,60.85c-22.64,12.77-45.95,11.92-68.74-0.68c-0.33-0.18-0.63-0.41-0.94-0.64
			c-0.04-0.03-0.02-0.16-0.05-0.56C-386.53,157.55-375.21,154.54-364.77,146.63z"/>
	</g>
</g>
<g id="rEn7Wg_1_">
	<g>
		<path className="st0" d="M-363.67,309.49c0-21.81,0-43.27,0-65.17c7.14,0,14.18,0,21.58,0c0,2.34,0,4.77,0,6.4
			c5.07-2.63,9.88-6.5,15.27-7.67c16.04-3.48,29.07,6.69,29.74,23.1c0.59,14.3,0.12,28.64,0.12,43.35c-7.07,0-14.12,0-21.77,0
			c0-6.87,0.02-13.64-0.01-20.42c-0.03-6.16,0.1-12.34-0.24-18.49c-0.35-6.39-3.89-10.3-9.06-10.76c-6.56-0.58-11.42,2.62-13.1,8.87
			c-0.51,1.89-0.67,3.93-0.68,5.9c-0.06,11.49-0.03,22.98-0.03,34.88C-349.09,309.49-356.14,309.49-363.67,309.49z"/>
		<path className="st0" d="M-376.12,244.17c0,21.84,0,43.41,0,65.36c-7.09,0-14.13,0-21.47,0c0-21.71,0-43.39,0-65.36
			C-390.54,244.17-383.62,244.17-376.12,244.17z"/>
		<path className="st0" d="M-386.74,211.91c7.03-0.03,12.39,4.95,12.36,11.49c-0.03,6.54-5.35,11.45-12.41,11.46
			c-7.19,0-12.14-4.67-12.16-11.49C-398.97,216.58-394.03,211.94-386.74,211.91z"/>
	</g>
</g>
<g>
	<path className="st0" d="M-360.41,494.94c-15.49,0-30.98,0.11-46.47-0.07c-4.34-0.05-8.74-0.63-12.98-1.58
		c-14.31-3.22-22.27-11.56-22.81-26.23c-0.76-20.69-0.81-41.44-0.11-62.13c0.47-13.91,6.99-20.14,21.08-22.39
		c6.38-1.02,12.91-1.49,19.37-1.53c27.23-0.16,54.47-0.24,81.7,0.04c7.81,0.08,15.71,0.92,23.4,2.33
		c9.99,1.83,16.02,8.7,16.96,18.77c2.09,22.3,2.28,44.65-0.01,66.93c-1.6,15.54-9.99,23.62-25.48,24.98
		c-9.93,0.87-19.95,0.78-29.93,0.94c-8.24,0.14-16.49,0.03-24.74,0.03C-360.41,494.99-360.41,494.96-360.41,494.94z M-378.05,460.44
		c14.95-7.8,29.41-15.35,44.52-23.23c-15.19-7.89-29.6-15.36-44.52-23.11C-378.05,429.76-378.05,444.68-378.05,460.44z"/>
</g>
</svg>
