
<!-- Generator: Adobe Illustrator 23.0.2, SVG Export Plug-In . SVG Version: 6.00 Build 0)  -->
<svg version="1.1" id="Layer_1" xmlns="http://www.w3.org/2000/svg" xmlns:xlink="http://www.w3.org/1999/xlink" x="0px" y="0px"
	 viewBox="0 0 201.38 142.52" style="enable-background:new 0 0 201.38 142.52;" xml:space="preserve">
<style type="text/css">
	.st0{fill:#FFFFFF;}
</style>
<g id="b6EN02_1_">
	<g>
		<path class="st0" d="M76.66,98.39c-10.44,7.91-21.77,10.92-34.18,10.05c0.03,0.4,0.01,0.53,0.05,0.56
			c0.3,0.22,0.61,0.45,0.94,0.64c22.79,12.6,46.1,13.45,68.74,0.68c23.29-13.14,34.02-34.39,34.78-60.85
			c0.05-1.64,0.43-2.68,1.72-3.84c3.54-3.2,6.81-6.7,10.19-10.08c-0.15-0.14-0.3-0.28-0.46-0.42c-4,1.08-8,2.15-12,3.23
			c4.02-3.75,7.45-7.49,8.9-12.64c-4.22,1.53-8.21,2.94-12.17,4.45c-1.81,0.69-3.06,0.24-4.55-1.01
			c-7.45-6.23-15.92-7.89-24.92-4.17c-8.7,3.6-13.9,10.26-14.84,19.82c-0.25,2.57-0.04,5.19-0.04,8.08
			c-20.18-1.4-36.41-9.98-49.64-25.34c-5.78,12.81-3.33,23.35,6.62,32.62c-3.23-0.89-6.46-1.78-9.67-2.67
			c-0.84,9.89,6.03,18.78,18.17,23.93c-3.18,0.14-6.35,0.29-9.78,0.44C58.35,91.86,65.72,97.11,76.66,98.39z"/>
		<path class="st0" d="M76.66,98.39c-10.94-1.28-18.31-6.53-22.14-16.52c3.43-0.16,6.6-0.3,9.78-0.44
			C52.17,76.27,45.3,67.38,46.14,57.49c3.22,0.89,6.44,1.78,9.67,2.67c-9.95-9.27-12.4-19.82-6.62-32.62
			C62.42,42.9,78.65,51.49,98.83,52.89c0-2.89-0.22-5.51,0.04-8.08c0.94-9.56,6.15-16.23,14.84-19.82c9-3.72,17.47-2.06,24.92,4.17
			c1.49,1.25,2.74,1.7,4.55,1.01c3.95-1.51,7.95-2.92,12.17-4.45c-1.45,5.15-4.88,8.89-8.9,12.64c4-1.08,8-2.15,12-3.23
			c0.15,0.14,0.3,0.28,0.46,0.42c-3.38,3.38-6.65,6.88-10.19,10.08c-1.29,1.16-1.67,2.2-1.72,3.84
			c-0.76,26.46-11.49,47.72-34.78,60.85c-22.64,12.77-45.95,11.92-68.74-0.68c-0.33-0.18-0.63-0.41-0.94-0.64
			c-0.04-0.03-0.02-0.16-0.05-0.56C54.9,109.31,66.22,106.3,76.66,98.39z"/>
	</g>
</g>
</svg>
