<svg id="Layer_1" data-name="Layer 1" xmlns="http://www.w3.org/2000/svg" viewBox="0 0 164.65 114.2"><defs><style>.cls-1{fill:#fff;}</style></defs><title>youtube</title><path className="cls-1" d="M101.22,128.24c-15.49,0-31,.11-46.47-.07a63,63,0,0,1-13-1.59C27.47,123.36,19.51,115,19,100.35c-.76-20.69-.81-41.44-.11-62.13.47-13.91,7-20.13,21.08-22.39A128.2,128.2,0,0,1,59.32,14.3c27.23-.16,54.47-.23,81.7,0a138.29,138.29,0,0,1,23.4,2.33c10,1.82,16,8.69,17,18.77a341.74,341.74,0,0,1,0,66.93c-1.61,15.54-10,23.61-25.48,25-9.93.87-19.95.77-29.93.94-8.24.14-16.49,0-24.74,0ZM83.59,93.74l44.52-23.23L83.59,47.39Z" transform="translate(-18.37 -14.16)"/></svg>