<svg xmlns="http://www.w3.org/2000/svg" width="72" height="73" viewBox="0 0 72 73">
  <g id="calendar_icon" transform="translate(-349 -837)">
    <g id="Group_62" data-name="Group 62" transform="translate(20.727 10)">
      <g id="Rectangle_32" data-name="Rectangle 32" transform="translate(328.273 855)" fill="#fff" stroke="#9d9d9d" stroke-width="1">
        <rect width="72" height="45" rx="8" stroke="none"/>
        <rect x="0.5" y="0.5" width="71" height="44" rx="7.5" fill="none"/>
      </g>
      <g id="Rectangle_31" data-name="Rectangle 31" transform="translate(328.273 837)" fill="#9d9d9d" stroke="#9d9d9d" stroke-width="1">
        <path d="M8,0H64a8,8,0,0,1,8,8V25a0,0,0,0,1,0,0H0a0,0,0,0,1,0,0V8A8,8,0,0,1,8,0Z" stroke="none"/>
        <path d="M8,.5H64A7.5,7.5,0,0,1,71.5,8V24a.5.5,0,0,1-.5.5H1A.5.5,0,0,1,.5,24V8A7.5,7.5,0,0,1,8,.5Z" fill="none"/>
      </g>
      <text id="FEB" transform="translate(364.273 856)" fill="#fff" font-size="12" font-family="Arial-BoldMT, Arial" font-weight="700"><tspan x="-12" y="0">FEB</tspan></text>
    </g>
    <g id="Group_63" data-name="Group 63" transform="translate(5 2)">
      <rect id="Rectangle_33" data-name="Rectangle 33" width="6" height="6" transform="translate(354 875)" fill="#9d9d9d"/>
      <rect id="Rectangle_34" data-name="Rectangle 34" width="6" height="6" transform="translate(366 875)" fill="#9d9d9d"/>
      <rect id="Rectangle_37" data-name="Rectangle 37" width="6" height="6" transform="translate(378 875)" fill="#9d9d9d"/>
      <rect id="Rectangle_35" data-name="Rectangle 35" width="6" height="6" transform="translate(389 875)" fill="#9d9d9d"/>
      <rect id="Rectangle_36" data-name="Rectangle 36" width="6" height="6" transform="translate(401 875)" fill="#9d9d9d"/>
    </g>
    <g id="Group_64" data-name="Group 64" transform="translate(5 12)">
      <rect id="Rectangle_33-2" data-name="Rectangle 33" width="6" height="6" transform="translate(354 875)" fill="#9d9d9d"/>
      <rect id="Rectangle_34-2" data-name="Rectangle 34" width="6" height="6" transform="translate(366 875)" fill="#9d9d9d"/>
      <rect id="Rectangle_37-2" data-name="Rectangle 37" width="6" height="6" transform="translate(378 875)" fill="#9d9d9d"/>
      <rect id="Rectangle_35-2" data-name="Rectangle 35" width="6" height="6" transform="translate(389 875)" fill="#9d9d9d"/>
      <rect id="Rectangle_36-2" data-name="Rectangle 36" width="6" height="6" transform="translate(401 875)" fill="#9d9d9d"/>
    </g>
    <g id="Group_65" data-name="Group 65" transform="translate(5 22)">
      <rect id="Rectangle_37-3" data-name="Rectangle 37" width="6" height="6" transform="translate(378 875)" fill="#9d9d9d"/>
      <rect id="Rectangle_35-3" data-name="Rectangle 35" width="6" height="6" transform="translate(389 875)" fill="#9d9d9d"/>
      <rect id="Rectangle_36-3" data-name="Rectangle 36" width="6" height="6" transform="translate(401 875)" fill="#9d9d9d"/>
    </g>
    <g id="Rectangle_38" data-name="Rectangle 38" transform="translate(356 837)" fill="#9d9d9d" stroke="#fff" stroke-width="2">
      <rect width="9" height="20" rx="2" stroke="none"/>
      <rect x="1" y="1" width="7" height="18" rx="1" fill="none"/>
    </g>
    <g id="Rectangle_39" data-name="Rectangle 39" transform="translate(403 837)" fill="#9d9d9d" stroke="#fff" stroke-width="2">
      <rect width="9" height="20" rx="2" stroke="none"/>
      <rect x="1" y="1" width="7" height="18" rx="1" fill="none"/>
    </g>
  </g>
</svg>
